<svg width="32" height="32" viewBox="0 0 32 32" fill="none" xmlns="http://www.w3.org/2000/svg">
<path d="M6.6665 9.33333C6.6665 10.7478 7.22841 12.1044 8.2286 13.1046C9.22879 14.1048 10.5853 14.6667 11.9998 14.6667C13.4143 14.6667 14.7709 14.1048 15.7711 13.1046C16.7713 12.1044 17.3332 10.7478 17.3332 9.33333C17.3332 7.91885 16.7713 6.56229 15.7711 5.5621C14.7709 4.5619 13.4143 4 11.9998 4C10.5853 4 9.22879 4.5619 8.2286 5.5621C7.22841 6.56229 6.6665 7.91885 6.6665 9.33333Z" stroke="white" stroke-width="1.33333" stroke-linecap="round" stroke-linejoin="round"/>
<path d="M4 28V25.3333C4 23.9188 4.5619 22.5623 5.5621 21.5621C6.56229 20.5619 7.91885 20 9.33333 20H14.6667C16.0812 20 17.4377 20.5619 18.4379 21.5621C19.4381 22.5623 20 23.9188 20 25.3333V28" stroke="white" stroke-width="1.33333" stroke-linecap="round" stroke-linejoin="round"/>
<path d="M21.3335 4.17334C22.4807 4.46707 23.4975 5.13427 24.2237 6.06975C24.9498 7.00523 25.344 8.15578 25.344 9.34001C25.344 10.5242 24.9498 11.6748 24.2237 12.6103C23.4975 13.5457 22.4807 14.2129 21.3335 14.5067" stroke="white" stroke-width="1.33333" stroke-linecap="round" stroke-linejoin="round"/>
<path d="M28 28V25.3333C27.9932 24.1562 27.5972 23.0144 26.8737 22.0858C26.1502 21.1573 25.1398 20.4942 24 20.2" stroke="white" stroke-width="1.33333" stroke-linecap="round" stroke-linejoin="round"/>
</svg>
